HIERARCHY
ROOT hip
{
	OFFSET 0.000000 0.000000 0.000000 
	CHANNELS 6 Xposition Yposition Zposition Xrotation Zrotation Yrotation
	JOINT abdomen
	{
		OFFSET 0.000000 3.402643 0.000000 
		CHANNELS 3 Xrotation Zrotation Yrotation
		JOINT chest
		{
			OFFSET 0.000000 8.438565 -0.680529 
			CHANNELS 3 Xrotation Zrotation Yrotation
			JOINT neck
			{
				OFFSET 0.000000 10.207942 -0.272212 
				CHANNELS 3 Xrotation Zrotation Yrotation
				JOINT head
				{
					OFFSET 0.000000 3.130431 0.000000 
					CHANNELS 3 Xrotation Zrotation Yrotation
					End Site
					{
						OFFSET 0.000000 3.130435 0.000000 
					}
				}
			}
			JOINT lCollar
			{
				OFFSET 3.470700 6.669187 -0.816635 
				CHANNELS 3 Yrotation Zrotation Xrotation
				JOINT lShldr
				{
					OFFSET 3.198488 0.000000 0.000000 
					CHANNELS 3 Zrotation Yrotation Xrotation
					JOINT lForeArm
					{
						OFFSET 10.139888 0.000000 0.000000 
						CHANNELS 3 Yrotation Zrotation Xrotation
						JOINT lHand
						{
							OFFSET 8.370511 0.000000 0.000000 
							CHANNELS 3 Zrotation Yrotation Xrotation
							End Site
							{
								OFFSET 4.083176 0.000000 0.000000 
							}
						}
					}
				}
			}
			JOINT rCollar
			{
				OFFSET -3.470700 6.669187 -0.816635 
				CHANNELS 3 Yrotation Zrotation Xrotation
				JOINT rShldr
				{
					OFFSET -3.198488 0.000000 0.000000 
					CHANNELS 3 Zrotation Yrotation Xrotation
					JOINT rForeArm
					{
						OFFSET -10.139888 0.000000 0.000000 
						CHANNELS 3 Yrotation Zrotation Xrotation
						JOINT rHand
						{
							OFFSET -8.370511 0.000000 0.000000 
							CHANNELS 3 Zrotation Yrotation Xrotation
							End Site
							{
								OFFSET -4.083176 0.000000 0.000000 
							}
						}
					}
				}
			}
		}
	}
	JOINT lThigh
	{
		OFFSET 5.308129 -1.633274 1.361059 
		CHANNELS 3 Xrotation Zrotation Yrotation
		JOINT lShin
		{
			OFFSET -2.041588 -20.007561 0.000000 
			CHANNELS 3 Xrotation Zrotation Yrotation
			JOINT lFoot
			{
				OFFSET 0.000000 -19.190928 -1.224953 
				CHANNELS 3 Xrotation Yrotation Zrotation
				End Site
				{
					OFFSET 0.000000 -2.449906 4.627600 
				}
			}
		}
	}
	JOINT rThigh
	{
		OFFSET -5.308129 -1.633274 1.361059 
		CHANNELS 3 Xrotation Zrotation Yrotation
		JOINT rShin
		{
			OFFSET 2.041588 -20.007561 0.000000 
			CHANNELS 3 Xrotation Zrotation Yrotation
			JOINT rFoot
			{
				OFFSET 0.000000 -19.190928 -1.224953 
				CHANNELS 3 Xrotation Yrotation Zrotation
				End Site
				{
					OFFSET 0.000000 -2.449906 4.627600 
				}
			}
		}
	}
}
MOTION
Frames: 6
Frame Time: 0.033333
0.856250 64.934479 5.239165 3.417969 5.791016 -1.415030 0.000000 0.000000 0.000000 -1.484375 -2.568359 0.078125 34.970707 -11.337892 -3.732388 -6.132813 8.007812 0.684954 1.425781 5.527344 -6.817347 -12.968750 -16.494141 25.368322 -91.503906 -0.937500 22.812500 15.390624 -7.255858 -8.232423 -4.697266 -20.087893 -7.861328 20.371094 29.833986 24.233374 87.001953 -4.853516 33.076176 -15.771482 12.578125 -9.177561 7.771089 4.286406 12.399066 0.681023 -1.101669 -14.012384 37.695602 -2.395215 -11.245687 17.125467 -4.062266 -12.568377 0.156686 0.431070 -4.613863 29.896046 0.696469 3.636659 
0.723671 65.153183 5.042043 2.783203 5.400391 -1.494141 0.000000 0.000000 0.000000 -1.308594 -2.724609 0.244141 35.205082 -11.650391 -3.351581 -4.941406 8.642579 0.665530 0.742188 3.535149 -5.977177 -14.101563 -20.693361 22.799286 -87.509766 -0.820313 24.560738 15.322264 -6.679687 -8.115234 -2.939453 -17.812500 -6.679688 20.185549 31.728514 21.821539 83.867188 -4.814453 32.422695 -15.400390 10.576172 -8.767738 6.246967 4.969418 12.209922 2.361567 -0.557132 -16.110537 37.379185 -2.393101 -11.329028 16.339779 -3.447128 -11.773615 2.278494 0.163320 0.067519 30.453693 0.945018 4.436641 
0.648611 64.881439 4.766670 2.724609 5.126953 -1.523437 0.000000 0.000000 0.000000 -1.123047 -2.763672 0.400391 37.041016 -11.855470 -3.212891 -6.552734 8.837890 0.556641 0.039063 1.083984 -5.048828 -14.433594 -25.742189 20.171541 -82.480469 -0.761719 25.117189 15.322266 -6.425781 -8.087030 -0.927734 -15.644531 -5.378226 20.097656 33.369137 19.609375 80.400391 -4.707031 31.093750 -15.156250 10.664063 -8.738427 4.137867 5.408371 11.610902 3.176216 -0.235396 -16.698029 37.127193 -2.214029 -10.865217 14.582734 -3.290314 -11.388259 4.344467 0.182723 2.395844 30.973843 1.222678 5.726207 
0.585875 64.115250 4.439060 3.378906 4.941407 -2.020643 0.000000 0.000000 0.000000 -0.957031 -2.910156 0.673828 37.451172 -13.906252 -2.502347 -7.626953 11.201171 -0.154353 -0.253906 -1.533203 -4.267578 -14.111329 -30.888674 17.646484 -78.095703 -0.937500 22.275549 15.117186 -6.093750 -7.998046 0.888672 -14.072266 -4.362860 21.240234 35.136715 18.017578 77.080078 -4.697266 31.260567 -15.664063 10.546874 -8.826338 1.014652 5.916472 11.105268 4.135502 -0.146330 -15.658122 36.484581 -2.212280 -11.001366 11.950912 -3.417558 -10.557205 5.514041 0.143627 3.046086 31.096199 1.499919 6.757968 
0.508233 62.846481 4.158109 3.964844 4.804688 -1.796875 0.000000 0.000000 0.000000 -0.810547 -3.017578 0.800781 37.900391 -14.628906 -2.463404 -8.515625 11.943359 -0.701104 -1.435547 -4.267578 -3.622320 -13.496094 -35.039066 16.527596 -74.326172 -1.005859 21.025391 16.035154 -5.898438 -8.115233 2.451172 -11.660156 -3.376932 21.542969 36.503906 17.353514 74.140625 -4.619141 30.800779 -16.572266 10.332031 -8.982622 -2.147874 6.432280 10.516442 4.823062 -0.170195 -16.806015 35.680027 -2.098101 -10.900702 9.536977 -3.524556 -9.870191 5.808348 0.134882 2.754570 30.392139 1.647329 7.790429 
0.490769 61.140915 3.814887 4.873047 4.726562 -1.816406 0.000000 0.000000 0.000000 -0.673828 -3.076172 0.917969 37.539066 -14.892577 -2.385322 -8.945312 11.679688 -1.189389 -2.441406 -7.011719 -3.125000 -13.300781 -38.574223 15.648208 -71.328125 -0.957031 21.543129 16.347656 -5.449219 -8.086865 4.326171 -9.267578 -2.382813 22.294922 37.197266 17.007858 72.812500 -4.550782 30.020304 -16.259766 10.205079 -8.896484 -5.800248 6.834965 9.488978 5.513942 0.066397 -18.269775 34.540051 -2.038945 -10.967854 6.089547 -3.943172 -9.284121 6.807718 0.115521 1.904250 27.893574 1.743814 9.196937 
